<svg xmlns="http://www.w3.org/2000/svg" viewBox="0 0 3000 3000" width="3000" height="3000"><g transform="translate(499.2 406.8) rotate(0.0 977.4 792.0) scale(1.2003072609747245 1.2005639012263334)"><svg width="1628.583" height="1319.38" viewBox="0 0 1628.583 1319.38"><path d="M1579.283 1316.38H49.3c-25.571 0-46.3-20.729-46.3-46.3V96.513h1622.583V1270.08c0 25.571-20.729 46.3-46.3 46.3z" fill="#fff"/><path d="M1579.283 1319.38H49.3c-27.184 0-49.3-22.116-49.3-49.3V96.513a3 3 0 0 1 3-3h1622.583a3 3 0 0 1 3 3V1270.08c0 27.184-22.116 49.3-49.3 49.3zM6 99.513V1270.08c0 23.876 19.424 43.3 43.3 43.3h1529.983c23.875 0 43.3-19.424 43.3-43.3V99.513z" fill="#232323"/><path d="M1579.223 3H49.36C23.756 3 3 23.756 3 49.36v47.153h1622.583V49.36c0-25.604-20.756-46.36-46.36-46.36z" fill="#fff"/><path d="M1625.583 99.513H3a3 3 0 0 1-3-3V49.36C0 22.143 22.143 0 49.36 0h1529.863c27.217 0 49.36 22.143 49.36 49.36v47.152a3 3 0 0 1-3 3.001zM6 93.513h1616.583V49.36c0-23.909-19.451-43.36-43.36-43.36H49.36C25.451 6 6 25.451 6 49.36z" fill="#232323"/><circle cx="1374.449" cy="50.555" fill="#fff" r="25.032"/><path d="M1374.449 78.587c-15.457 0-28.032-12.575-28.032-28.032s12.575-28.032 28.032-28.032 28.032 12.575 28.032 28.032-12.575 28.032-28.032 28.032zm0-50.064c-12.148 0-22.032 9.883-22.032 22.032s9.883 22.032 22.032 22.032 22.032-9.883 22.032-22.032-9.884-22.032-22.032-22.032z" fill="#232323"/><circle cx="1462.06" cy="51.518" fill="#fff" r="25.032"/><path d="M1462.06 79.549c-15.457 0-28.032-12.575-28.032-28.032s12.575-28.032 28.032-28.032 28.032 12.575 28.032 28.032-12.575 28.032-28.032 28.032zm0-50.063c-12.148 0-22.032 9.883-22.032 22.032s9.883 22.032 22.032 22.032 22.032-9.883 22.032-22.032-9.883-22.032-22.032-22.032z" fill="#232323"/><circle cx="1542.932" cy="50.555" fill="#fff" r="25.032"/><path d="M1542.932 78.587c-15.457 0-28.032-12.575-28.032-28.032s12.575-28.032 28.032-28.032 28.032 12.575 28.032 28.032-12.576 28.032-28.032 28.032zm0-50.064c-12.148 0-22.032 9.883-22.032 22.032s9.883 22.032 22.032 22.032 22.032-9.883 22.032-22.032-9.884-22.032-22.032-22.032z" fill="#232323"/><circle cx="308.755" cy="416.738" fill="#d9c6f4" r="78.803"/><path d="M419.667 592.342c-31.08 23.021-69.546 36.638-111.207 36.638-40.21 0-77.458-12.693-107.949-34.295 13.817-39.843 35.524-74.905 58.524-97.547 14.447 8.983 31.49 14.163 49.719 14.163 19.48 0 37.605-5.915 52.661-16.055 23.485 22.013 44.782 56.823 58.252 97.096z" fill="#d9c6f4"/><path d="M308.461 631.981c-39.577 0-77.505-12.05-109.684-34.848a103.829 103.829 0 0 1-2.509-1.802c-23.59-17.278-43.169-40.112-56.606-66.024-13.886-26.777-21.226-56.983-21.226-87.352 0-104.781 85.245-190.026 190.025-190.026s190.025 85.245 190.025 190.026c0 30.113-6.84 58.916-20.331 85.607-12.864 25.452-31.671 48.085-54.386 65.45-.769.587-1.538 1.164-2.318 1.741-32.878 24.355-71.95 37.228-112.99 37.228zm0-374.051c-101.472 0-184.025 82.554-184.025 184.026 0 29.411 7.107 58.662 20.553 84.59 13.014 25.096 31.977 47.211 54.837 63.955.797.59 1.593 1.161 2.398 1.722 31.181 22.091 67.909 33.759 106.237 33.759 39.745 0 77.583-12.466 109.421-36.05.756-.559 1.5-1.116 2.244-1.686 22.001-16.818 40.216-38.738 52.675-63.39 13.062-25.844 19.686-53.736 19.686-82.9-.001-101.473-82.554-184.026-184.026-184.026z" fill="#232323"/><circle cx="308.755" cy="942.09" fill="#d9c6f4" r="78.803"/><path d="M419.667 1117.694c-31.08 23.021-69.546 36.638-111.207 36.638-40.21 0-77.458-12.693-107.949-34.295 13.817-39.843 35.524-74.905 58.524-97.547 14.447 8.983 31.49 14.163 49.719 14.163 19.48 0 37.605-5.915 52.661-16.055 23.485 22.013 44.782 56.823 58.252 97.096z" fill="#d9c6f4"/><g fill="#232323"><path d="M308.461 1157.332c-39.578 0-77.506-12.05-109.684-34.847a107.482 107.482 0 0 1-2.509-1.802c-23.59-17.278-43.169-40.112-56.606-66.024-13.886-26.777-21.226-56.983-21.226-87.352 0-104.78 85.245-190.025 190.025-190.025s190.025 85.245 190.025 190.025c0 30.114-6.84 58.917-20.331 85.608-12.864 25.452-31.671 48.085-54.386 65.45-.769.588-1.538 1.164-2.318 1.741-32.878 24.353-71.95 37.226-112.99 37.226zm0-374.05c-101.472 0-184.025 82.554-184.025 184.025 0 29.411 7.107 58.662 20.553 84.591 13.014 25.096 31.977 47.211 54.837 63.955.798.59 1.594 1.161 2.4 1.723 31.178 22.089 67.906 33.757 106.235 33.757 39.745 0 77.582-12.466 109.421-36.049.756-.559 1.5-1.117 2.244-1.686 22.001-16.818 40.216-38.738 52.675-63.39 13.062-25.845 19.686-53.736 19.686-82.901-.001-101.472-82.554-184.025-184.026-184.025zm433.634-413.863H576.583a3 3 0 1 1 0-6h165.513a3 3 0 1 1-.001 6zm117.993 0h-80.769a3 3 0 1 1 0-6h80.769a3 3 0 1 1 0 6zM618.46 460.547h-41.877a3 3 0 1 1 0-6h41.877a3 3 0 1 1 0 6zm241.628 0H653.025a3 3 0 1 1 0-6h207.063a3 3 0 1 1 0 6zm-80.769 91.129H577.078a3 3 0 1 1 0-6h202.241a3 3 0 1 1 0 6zm81.264 0h-46.699a3 3 0 1 1 0-6h46.699a3 3 0 1 1 0 6zm-115.72 348.349H583.217a3 3 0 1 1 0-6h161.646a3 3 0 1 1 0 6zm115.236 0h-78.882a3 3 0 1 1 0-6h78.882a3 3 0 1 1 0 6zm-235.983 91.129h-40.898a3 3 0 1 1 0-6h40.898a3 3 0 1 1 0 6zm235.983 0H657.873a3 3 0 1 1 0-6h202.226a3 3 0 1 1 0 6zm-78.882 91.127H583.701a3 3 0 1 1 0-6h197.516a3 3 0 1 1 0 6zm79.366 0h-45.608a3 3 0 1 1 0-6h45.608a3 3 0 1 1 0 6z"/></g><path d="m978.076 344.07 7.399 14.991c.232.47.68.796 1.199.871l16.544 2.404c1.306.19 1.828 1.795.883 2.716l-11.971 11.669a1.593 1.593 0 0 0-.458 1.41l2.826 16.477c.223 1.301-1.142 2.293-2.311 1.679l-14.797-7.779a1.592 1.592 0 0 0-1.482 0l-14.797 7.779c-1.168.614-2.534-.378-2.311-1.679l2.826-16.477a1.593 1.593 0 0 0-.458-1.41l-11.971-11.669c-.945-.921-.424-2.526.883-2.716l16.544-2.404a1.59 1.59 0 0 0 1.199-.871l7.399-14.991c.583-1.184 2.27-1.184 2.854 0zm108.488 0 7.399 14.991c.232.47.68.796 1.199.871l16.544 2.404c1.306.19 1.828 1.795.883 2.716l-11.971 11.669a1.593 1.593 0 0 0-.458 1.41l2.826 16.477c.223 1.301-1.142 2.293-2.311 1.679l-14.797-7.779a1.592 1.592 0 0 0-1.482 0l-14.797 7.779c-1.168.614-2.534-.378-2.311-1.679l2.826-16.477a1.593 1.593 0 0 0-.458-1.41l-11.971-11.669c-.945-.921-.424-2.526.883-2.716l16.544-2.404a1.59 1.59 0 0 0 1.199-.871l7.399-14.991c.582-1.184 2.27-1.184 2.854 0zm106.487 0 7.399 14.991c.232.47.68.796 1.199.871l16.544 2.404c1.306.19 1.828 1.795.883 2.716l-11.971 11.669a1.593 1.593 0 0 0-.458 1.41l2.826 16.477c.223 1.301-1.142 2.293-2.311 1.679l-14.797-7.779a1.592 1.592 0 0 0-1.482 0l-14.797 7.779c-1.168.614-2.534-.378-2.311-1.679l2.826-16.477a1.593 1.593 0 0 0-.458-1.41l-11.971-11.669c-.945-.921-.424-2.526.883-2.716l16.544-2.404a1.59 1.59 0 0 0 1.199-.871l7.399-14.991c.582-1.184 2.27-1.184 2.854 0zm-215.404 92.466 7.399 14.991c.232.47.68.796 1.199.871l16.544 2.404c1.306.19 1.828 1.795.883 2.716l-11.972 11.67a1.593 1.593 0 0 0-.458 1.41l2.826 16.477c.223 1.301-1.142 2.293-2.311 1.679l-14.797-7.779a1.592 1.592 0 0 0-1.482 0l-14.797 7.779c-1.168.614-2.534-.378-2.311-1.679l2.826-16.477a1.593 1.593 0 0 0-.458-1.41l-11.971-11.669c-.945-.921-.424-2.526.883-2.716l16.544-2.404a1.59 1.59 0 0 0 1.199-.871l7.399-14.991c.583-1.184 2.271-1.184 2.855-.001zm108.488 0 7.399 14.991c.232.47.68.796 1.199.871l16.544 2.404c1.306.19 1.828 1.795.883 2.716l-11.971 11.669a1.593 1.593 0 0 0-.458 1.41l2.826 16.477c.223 1.301-1.142 2.293-2.311 1.679l-14.797-7.779a1.592 1.592 0 0 0-1.482 0l-14.797 7.779c-1.168.614-2.534-.378-2.311-1.679l2.826-16.477a1.593 1.593 0 0 0-.458-1.41l-11.971-11.669c-.945-.921-.424-2.526.883-2.716l16.544-2.404a1.59 1.59 0 0 0 1.199-.871l7.399-14.991c.582-1.183 2.269-1.183 2.854 0zm-107.731 92 7.399 14.991c.232.47.68.796 1.199.871l16.544 2.404c1.306.19 1.828 1.795.883 2.716l-11.971 11.669a1.593 1.593 0 0 0-.458 1.41l2.826 16.477c.223 1.301-1.142 2.293-2.31 1.679l-14.797-7.779a1.592 1.592 0 0 0-1.482 0l-14.797 7.779c-1.168.614-2.534-.378-2.311-1.679l2.826-16.477a1.593 1.593 0 0 0-.458-1.41l-11.971-11.669c-.945-.921-.424-2.526.883-2.716l16.544-2.404a1.59 1.59 0 0 0 1.199-.871l7.399-14.991c.581-1.183 2.269-1.183 2.853 0zm108.487 0 7.399 14.991c.232.47.68.796 1.199.871l16.544 2.404c1.306.19 1.828 1.795.883 2.716l-11.971 11.669a1.593 1.593 0 0 0-.458 1.41l2.826 16.477c.223 1.301-1.142 2.293-2.311 1.679l-14.797-7.779a1.592 1.592 0 0 0-1.482 0l-14.797 7.779c-1.168.614-2.534-.378-2.311-1.679l2.826-16.477a1.593 1.593 0 0 0-.458-1.41l-11.971-11.669c-.945-.921-.424-2.526.883-2.716l16.544-2.404a1.59 1.59 0 0 0 1.199-.871l7.399-14.991c.582-1.183 2.27-1.183 2.854 0zm106.487 0 7.399 14.991c.232.47.68.796 1.199.871l16.544 2.404c1.306.19 1.828 1.795.883 2.716l-11.971 11.669a1.593 1.593 0 0 0-.458 1.41l2.826 16.477c.223 1.301-1.142 2.293-2.311 1.679l-14.797-7.779a1.592 1.592 0 0 0-1.482 0l-14.797 7.779c-1.168.614-2.534-.378-2.311-1.679l2.826-16.477a1.593 1.593 0 0 0-.458-1.41l-11.971-11.669c-.945-.921-.424-2.526.883-2.716l16.544-2.404a1.59 1.59 0 0 0 1.199-.871l7.399-14.991c.582-1.183 2.27-1.183 2.854 0z" fill="#d9c6f4"/></svg></g><g transform="translate(172.79999999999998 1274.3999999999999) rotate(0.0 348.6 697.1999999999999) scale(1.2002520322683936 1.2001301345929076)"><svg width="580.878" height="1161.874" viewBox="0 0 580.878 1161.874"><defs xmlns:xlink="http://www.w3.org/1999/xlink"><clipPath id="c"><path d="M185.706 21.336a1.884 1.884 0 0 1 3.696.156c5.344 36.323-28.207 182.259 98.287 260.827 80.951 50.279 94.856 72.322 107.078 119.867 19.92 77.487-37.271 147.867-22.416 249.952 14.374 98.775 60.617 199.759-23.511 277.621a1.887 1.887 0 0 1-3.162-1.16c-2.419-20.884 11.511-141.054-65.877-225.436-78.754-85.871 56.466-180.008-72.107-281.469-122.558-96.714-48.106-289.625-21.988-400.358z"/></clipPath><clipPath id="d"><use xlink:href="#a"/></clipPath><clipPath id="e"><use xlink:href="#b"/></clipPath><path id="a" d="M564.94 483.873a.677.677 0 0 0-.977-.88c-10.007 6.799-50.349 37.433-47.939 87.994 3.853 80.851-47.145 98.729-80.632 146.693-32.252 46.195-11.876 98.242-18.05 143.087-4.679 33.984-76.01 72.192-76.01 72.192s110.709-10.23 140.315-68.328c21.755-42.693 7.534-71.117 24.109-123.217 13.849-43.532 60.281-51.452 69.756-101.407 9.663-50.941-48.582-83.838-10.572-156.134z" fill="#000"/><path id="b" d="M356.474 937.012c.276.589.025 1.317-.562 1.627a1.142 1.142 0 0 1-1.158-.039c-14.061-9.113-97.44-37.678-108.77-93.113C225.239 743.99 103.759 771.11 126.77 649.971c28.833-151.795-18.986-169.042-97.252-236.277 0 0 188.396 40.64 201.815 191.283 6.099 68.465-27.649 81.963 41.689 153.883 40.268 41.77 22.023 123.211 83.452 178.152z" fill="#000"/></defs><path d="M185.706 21.336a1.884 1.884 0 0 1 3.696.156c5.344 36.323-28.207 182.259 98.287 260.827 80.951 50.279 94.856 72.322 107.078 119.867 19.92 77.487-37.271 147.867-22.416 249.952 14.374 98.775 60.617 199.759-23.511 277.621a1.887 1.887 0 0 1-3.162-1.16c-2.419-20.884 11.511-141.054-65.877-225.436-78.754-85.871 56.466-180.008-72.107-281.469-122.558-96.714-48.106-289.625-21.988-400.358z" fill="#00676c"/><path clip-path="url(#c)" d="M341.217 946.139a3 3 0 0 1-2.668-4.367c44.507-87.015 19.006-187.29-11.81-273.904-15.061-42.332-8.936-80.208-3.012-116.837 4.828-29.857 9.389-58.06 3.529-88.782-6.554-34.365-26.092-67.231-59.731-100.478-28.489-28.156-50.459-64.613-65.299-108.359-11.836-34.892-19.188-74.477-21.852-117.655-4.531-73.43 6.243-132.714 6.353-133.305a3 3 0 0 1 5.9 1.093c-.108.584-10.761 59.261-6.256 131.981 2.64 42.625 9.895 81.663 21.562 116.031 14.537 42.822 36.006 78.467 63.809 105.945 34.533 34.129 54.619 68.024 61.409 103.622 6.057 31.761 1.198 61.807-3.501 90.864-5.803 35.882-11.803 72.986 2.741 113.868 31.245 87.82 57.045 189.601 11.499 278.647a2.995 2.995 0 0 1-2.673 1.636z" fill="#fff"/><use xmlns:xlink="http://www.w3.org/1999/xlink" fill="#00676c" xlink:href="#a"/><path clip-path="url(#d)" d="M320.01 946.503a3 3 0 0 1-1.109-5.789c46.176-18.358 77.774-37.502 99.442-60.245 25.243-26.495 37.834-59.056 38.494-99.542.792-48.584 24.586-76.716 45.579-101.537 19.973-23.615 37.223-44.01 33.305-77.266-6.118-51.937-6.634-89.317 40.086-133.921a3 3 0 1 1 4.142 4.34c-44.704 42.68-44.177 78.739-38.27 128.879 4.223 35.843-14.675 58.187-34.683 81.842-21.339 25.229-43.403 51.318-44.16 97.76-.687 42.064-13.819 75.946-40.149 103.583-22.287 23.392-54.562 42.992-101.57 61.683a2.998 2.998 0 0 1-1.107.213z" fill="#fff"/><use xmlns:xlink="http://www.w3.org/1999/xlink" fill="#00676c" xlink:href="#b"/><path clip-path="url(#e)" d="M383.588 959.587c-.489 0-.985-.12-1.444-.373-.755-.416-75.796-42.315-105.014-107.064-4.315-9.563-7.879-18.192-11.023-25.805-12.244-29.643-20.333-49.226-54.278-79.685-49.657-44.557-49.607-64.943-41.004-165.731 2.24-26.248-5.127-51.658-21.897-75.526-13.536-19.265-33.187-37.59-58.404-54.466-43.121-28.857-88-43.56-88.448-43.705a3.002 3.002 0 0 1-1.931-3.778 3.002 3.002 0 0 1 3.778-1.93c.456.147 46.131 15.111 89.936 44.426 25.835 17.289 46.014 36.131 59.977 56.003 17.604 25.053 25.33 51.796 22.967 79.485-8.55 100.165-8.615 118.002 39.033 160.757 34.962 31.37 43.258 51.456 55.815 81.858 3.128 7.571 6.672 16.153 10.947 25.627 28.405 62.948 101.702 103.871 102.439 104.277a3.002 3.002 0 0 1-1.449 5.63z" fill="#fff"/><path d="M475.149 943.874c35.89 22.65 58.36 55.04 58.36 91 0 68.48-81.48 124-182 124s-182-55.52-182-124c0-35.96 22.47-68.35 58.36-91z" fill="#fff"/><path d="M351.509 1161.874c-49.211 0-95.516-13.084-130.384-36.841-35.22-23.997-54.616-56.016-54.616-90.159 0-35.477 21.781-69.569 59.759-93.537a2.997 2.997 0 0 1 1.602-.463h247.279c.566 0 1.122.16 1.602.463 37.978 23.968 59.759 58.061 59.759 93.537 0 34.144-19.396 66.162-54.615 90.159-34.87 23.757-81.174 36.841-130.386 36.841zm-122.768-215c-35.751 22.817-56.232 54.851-56.232 88 0 66.72 80.299 121 179 121s179-54.28 179-121c0-33.149-20.481-65.183-56.232-88z" fill="#232323"/><path d="M484.509 954.874h-268c-8.837 0-16-7.163-16-16s7.163-16 16-16h268c8.837 0 16 7.163 16 16 0 8.836-7.164 16-16 16z" fill="#fff"/><path d="M484.509 957.874h-268c-10.477 0-19-8.523-19-19s8.523-19 19-19h268c10.477 0 19 8.523 19 19s-8.524 19-19 19zm-268-32c-7.168 0-13 5.832-13 13s5.832 13 13 13h268c7.168 0 13-5.832 13-13s-5.832-13-13-13z" fill="#232323"/></svg></g><g transform="translate(1159.2 716.4) rotate(0.0 839.4 976.1999999999998) scale(1.200542346506785 1.2000029502223728)"><svg width="1398.368" height="1626.996" viewBox="0 0 1398.368 1626.996"><clipPath id="f"><path d="M944.695 416.308c8.04-37.769-1.092-94.326-20.299-128.911-11.482 7.123-23.916 13.168-30.904 12.444-28.7-2.979-46.242-54.321-52.485-70.236-7.281-.708-18.725-7.465-12.739-14.528 2.745-3.354 5.378-7.01 6.105-11.382.731-4.425-.042-9.721-.617-14.097-.438-3.357-.977-6.687-1.535-10.015-.78-4.658-1.603-9.307-2.247-13.984-.004-.036-.014-.08-.017-.117-.481-3.468-.859-6.943-1.062-10.456a166.74 166.74 0 0 1 1.229-34.591c4.21-27.539 19.171-52.095 43.169-66.664a109.802 109.802 0 0 1 34.729-13.315c.055-.012.108-.018.159-.031.786-.161 1.573-.317 2.359-.465 70.999-13.31 119.049 51.625 110.366 106.148-.734.285-2.741 1.076-2.953 1.159 0 .014-.006.006-.012.012-.402.156-21.264 8.169-29.097 10.621 6.167 106.329 61.832 161.321 61.832 161.321z"/></clipPath><clipPath id="g"><path d="M238.223 1269.187c-16.204 42.258-33.838 92.618-44.006 124.868 0 .159 2.383 10.008 10.485 23.194.318.397.556.874.794 1.271l37.889 37.73c10.723 4.448 59.336-26.054 63.308-29.867.159-.318 1.271 2.542 1.43 2.224 11.518-21.05 40.51-72.76 43.688-77.685z"/></clipPath><clipPath id="h"><path d="M799.413 1355.45c35.268 28.278 77.923 60.448 105.486 79.988.159.079 10.247.794 25.259-2.939.477-.159.953-.238 1.509-.318l47.5-24.624c7.467-8.896-6.752-64.42-9.214-69.424-.238-.238 2.78-.477 2.542-.715-16.522-17.396-56.953-60.686-60.686-65.293z"/></clipPath><clipPath id="i"><path d="M799.016 1355.053c35.268 28.278 77.923 60.448 105.486 79.988.159.079 10.247.794 25.26-2.939.477-.159.953-.238 1.509-.318l47.501-24.624c7.467-8.896-6.752-64.42-9.214-69.424-.238-.238 2.78-.477 2.542-.715-16.522-17.396-56.953-60.686-60.686-65.293z"/></clipPath><clipPath id="j"><path d="M786.545 798.153c-175.387-.238-396.511 72.204-532.578 427.664 0 0 31.996 31.455 106.98 56.476 99.37 33.123 135.057 64.817 133.786 91.506 0 0 13.958-157.832 106.735-277.854 13.742-17.714 72.125-62.275 116.289-91.109 82.689-53.855 180.47-123.358 181.503-139.245 1.826-29.39-57.351-67.358-112.715-67.438z"/></clipPath><clipPath id="k"><path d="M1172.348 728.809s109.299 104.056 41.622 234.325c-69.265 133.288-255.693 118.195-369.757 99.926 0 0 57.441 48.067 152.283 93.9 0 0-55.694-6.842-106.054 43.28-37.333 37.095-54.966 92.767-112.872 138.997-63.149-55.205-330.202-308.267-199.774-474.122 64.896-82.61 241.315-72.601 344.339-63.943 67.438-39.16 101.832-38.207 101.832-38.207z"/></clipPath><clipPath id="l"><path d="M746.832 687.93s16.909-23.163 30.976-48.831c-116.123-66.564-301.899-68.893-367.001-9.783-29.107 26.429 10.669 11.036 16.475 9.04-32.991 50.68 3.662 25.094 7.857 21.742-16.249 45.497 29.353-6.272 29.353-6.272.044.078.096.156.147.234a.17.17 0 0 0 .033.042c4.281 6.043 34.695 2.795 35.939 2.583 72.975-4.86 256.279 29.632 246.221 31.245z"/></clipPath><clipPath id="m"><path d="M457.183 759.339c-21.947 34.44 49.858-8.046 51.4-8.96-30.76 25.307-32.164 38.956-2.965 25.816 29.198-13.14 68.023-32.724 104.092-36.193 54.637-5.254 106.982 27.815 123.983 36.775 271.082 157.606 458.107 87.208 438.144-101.918-11.393-101.11-103.753-177.802-172.533-136.2-32.713 19.787-51.76 81.782-67 138-47.282-14.71-166.039-70.096-325.746-43.828-70.569 11.607-109.273 33.622-147.606 63.973a438.69 438.69 0 0 0-2.078 1.853c-35.278 31.837 17.338 13.726 28.002 8.738-8.187 6.949-22.031 20.11-29.619 28.93-33.679 39.148 1.926 23.014 1.926 23.014z"/></clipPath><path d="M945.459 416.408c6.72-40.058-1.856-94.427-21.063-129.011-11.482 7.123-23.916 13.168-30.904 12.444-28.7-2.979-46.242-54.321-52.485-70.236-7.281-.708-18.725-7.465-12.739-14.528 2.745-3.354 5.378-7.01 6.105-11.382.731-4.425-.042-9.721-.617-14.097-.438-3.357-.977-6.687-1.535-10.015-.78-4.658-1.603-9.307-2.247-13.984-.004-.036-.014-.08-.017-.117-.481-3.468-.859-6.943-1.062-10.456a166.74 166.74 0 0 1 1.229-34.591c4.21-27.539 19.171-52.095 43.169-66.664a109.802 109.802 0 0 1 34.729-13.315c.055-.012.108-.018.159-.031.786-.161 1.573-.317 2.359-.465 70.999-13.31 119.049 51.625 110.366 106.148-.734.285-2.741 1.076-2.953 1.159 0 .014-.006.006-.012.012-.402.156-19.929 7.275-27.762 9.727 10.509 112.989 92.583 175.1 92.583 175.1l-49.848 95.803z" fill="#fff"/><path d="M1032.915 430.908c-.13 0-.261-.008-.393-.025l-87.454-11.5a3.003 3.003 0 0 1-2.568-3.47c6.52-38.864-1.562-90.516-19.245-124.309-9.902 5.917-22.269 12.028-30.073 11.221-28.515-2.959-46.018-48.741-53.491-68.291-.3-.785-.584-1.527-.851-2.22-5.829-1.143-12.571-4.949-14.599-9.946-1.271-3.13-.653-6.408 1.737-9.23 2.837-3.466 4.865-6.504 5.436-9.934.618-3.748.003-8.402-.54-12.509l-.093-.707c-.437-3.351-.987-6.743-1.519-9.91l-.457-2.708c-.628-3.71-1.278-7.548-1.803-11.363a3.242 3.242 0 0 1-.029-.207c-.527-3.792-.883-7.292-1.073-10.602a169.87 169.87 0 0 1 1.253-35.18c4.473-29.257 20.721-54.324 44.583-68.811a112.553 112.553 0 0 1 35.701-13.693l.1-.019.04-.009a144.28 144.28 0 0 1 2.409-.475c31.722-5.945 61.62 2.869 84.185 24.823 23.068 22.444 34.447 54.917 29.697 84.746a3 3 0 0 1-1.877 2.325c-.495.192-1.573.617-2.281.895l-.489.192a2.57 2.57 0 0 1-.194.083c-.533.207-16.771 6.125-25.627 9.044 5.804 56.412 29.932 99.507 49.298 125.854 21.333 29.021 41.672 44.587 41.875 44.741a3.003 3.003 0 0 1 .85 3.776l-49.848 95.803a2.999 2.999 0 0 1-2.66 1.615zM948.9 413.835l82.322 10.825 47.735-91.745c-5.721-4.674-22.797-19.539-40.963-44.21-20.145-27.36-45.311-72.37-50.804-131.422a3 3 0 0 1 2.091-3.141c7.286-2.281 25.46-8.881 27.436-9.609l.146-.062.65-.255.679-.267c3.764-27.467-6.949-57.132-28.206-77.814-21.125-20.556-49.146-28.804-78.895-23.226-.77.144-1.539.297-2.308.455h-.001a106.517 106.517 0 0 0-33.958 12.987c-22.317 13.549-37.538 37.077-41.736 64.538a163.92 163.92 0 0 0-1.201 33.932c.183 3.182.522 6.523 1.04 10.249l.019.127c.512 3.716 1.153 7.506 1.774 11.172l.459 2.718c.54 3.223 1.102 6.68 1.55 10.124l.093.698c.567 4.297 1.274 9.645.51 14.275-.835 5.022-3.734 9.116-6.744 12.793-1.231 1.454-1.087 2.397-.788 3.134 1.282 3.161 7.233 6.093 11.496 6.508a2.998 2.998 0 0 1 2.503 1.891c.442 1.127.94 2.431 1.495 3.881 7.08 18.519 23.66 61.887 48.506 64.466 5.263.541 15.831-3.833 29.014-12.009a3 3 0 0 1 4.204 1.093c18.824 33.894 27.851 87.124 21.882 127.894zM907.434 37.52l-.033.008.033-.008zm.009-.003-.009.002a.03.03 0 0 0 .009-.002z" fill="#232323"/><path d="M864.08 159.976c12.326-.412 21.779 6.93 21.215 12.871s-11.067 10.511-23.26 8.646c-12.537-1.914-21.973-7.533-21.215-12.871.787-5.539 11.028-8.238 23.26-8.646zm11.289 86.34a13.122 13.122 0 0 0 6.596-1.423 15.085 15.085 0 0 0 5.275-4.148 13.033 13.033 0 0 0 1.683-2.866c.455-1.021.78-2.095.968-3.196a13.575 13.575 0 0 0-.578-6.756l-.042-.118a1.98 1.98 0 0 1 3.4-1.911 13.711 13.711 0 0 1 2.887 9.325 16.324 16.324 0 0 1-1.002 4.903 17.733 17.733 0 0 1-2.437 4.382 17.442 17.442 0 0 1-8.06 5.637 15.74 15.74 0 0 1-4.843.879 11.68 11.68 0 0 1-4.945-.945 1.978 1.978 0 0 1 .957-3.775zm3.906-57.586c-5.22.688-17.707 2.626-30.503.937a3.26 3.26 0 0 0-3.66 2.804l-.003.027c-.58 4.635-.193 12.286 8.673 12.318 10.894.04 25.421-8.509 27.314-13.911a1.674 1.674 0 0 0-1.821-2.175z" fill="#232323"/><path d="M835.724 86.728c15.621-29.913-56.342-51.386-68.968-38.799-10.615 10.583 50.117 74.894 68.968 38.799z" fill="#fff"/><path d="M818.849 100.617c-.515 0-1.035-.016-1.563-.047-20.601-1.229-47.52-27.438-53.509-43.247-2.423-6.396-.868-9.794.861-11.519 10.112-10.08 45.116-2.135 62.896 10.94 12.688 9.331 16.541 20.472 10.849 31.372-4.284 8.204-11.016 12.501-19.534 12.501zm-38.676-53.453c-5.246 0-9.336.932-11.299 2.889-.519.517-.561 2.308.514 5.144 2.615 6.902 10.183 16.503 19.279 24.458 10.291 9 20.853 14.44 28.976 14.925 6.927.408 11.959-2.612 15.422-9.242 4.276-8.188 1.22-16.183-9.085-23.761-12.504-9.194-31.393-14.413-43.807-14.413zm55.551 39.564h.01z" fill="#232323"/><path d="M964.402 160.448c-19.098 2.212-30.796-5.431-46.098-10.788-11.518-4.032-25.775-8.997-37-15-8.259 9.21-33.331 28.815-52.044 33.399-77.92 19.086-75.087-97.569-.912-82.993 11.484-37.833 81.171-77.728 145.346-51.956 52.797 21.202 69.657 72.71 80.619 100.262 13.288 33.399 52.326 83.274 90.06 107.494 40.921 26.264 99.729 21.692 126.303 87.106 28.309 69.685-14.487 108.944 70.773 175.301 114.854 89.388 31.854 257.388-114.146 207.388-130.52-44.699-55.811-335.41-114.552-359.975-57.789-24.166-94.448-54.025-120.886-156.123.001-.001-15.706-35.476-27.463-34.115z" fill="#232323"/><path d="M1279.026 722.746c-16.963 0-34.696-3.085-52.693-9.248-80.108-27.434-84.732-144.028-88.448-237.712-2.409-60.75-4.49-113.217-26.289-122.333-25.142-10.514-51.427-23.807-73.332-49.666-20.81-24.566-36.459-58.965-49.239-108.232-5.896-13.229-17.353-32.147-23.904-32.147-.126 0-.249.007-.372.021-15.547 1.799-26.278-2.548-37.636-7.152-3.153-1.278-6.414-2.6-9.799-3.785l-.429-.15c-10.771-3.77-24.018-8.408-34.949-13.969-9.931 10.185-33.586 28.1-51.961 32.602-31.271 7.66-46.552-6.079-52.872-14.95-10.87-15.256-11.048-38.285-.423-54.758 10.285-15.945 28.279-23.01 49.649-19.605 6.511-17.707 24.833-35.452 48.544-46.821 32.202-15.44 68.63-17.085 99.94-4.513 50.463 20.265 68.954 67.743 80.002 96.109.795 2.039 1.554 3.987 2.285 5.828 12.597 31.661 50.165 81.22 88.894 106.078 12.541 8.049 26.66 13.085 41.608 18.417 32.991 11.767 67.106 23.935 85.854 70.084 10.222 25.161 11.322 45.998 12.388 66.149 1.868 35.367 3.482 65.912 57.449 107.913 27.733 21.585 45.852 49.109 52.396 79.599 5.955 27.746 1.871 56.645-11.499 81.374a115.158 115.158 0 0 1-60.943 53.113c-13.827 5.17-28.702 7.753-44.221 7.754zM965.017 157.413c13.01 0 26.887 29.824 29.592 35.935.066.149.12.304.161.462 25.601 98.862 60.208 129.463 119.14 154.107 25.328 10.591 27.377 62.24 29.97 127.63 3.644 91.855 8.178 206.171 84.396 232.273 33.132 11.347 65.245 11.882 92.868 1.548a109.167 109.167 0 0 0 57.769-50.347c12.69-23.473 16.565-50.912 10.91-77.261-6.244-29.093-23.608-55.416-50.215-76.123-56.129-43.684-57.891-77.029-59.756-112.332-1.038-19.656-2.112-39.981-11.954-64.208-17.736-43.659-50.564-55.368-82.312-66.691-14.608-5.21-29.714-10.599-42.833-19.019-39.73-25.501-78.289-76.388-91.228-108.91-.738-1.854-1.502-3.815-2.302-5.868-10.695-27.461-28.596-73.422-76.648-92.718-29.753-11.948-64.419-10.362-95.11 4.354-23.374 11.208-41.095 28.714-46.247 45.689a3 3 0 0 1-3.449 2.072c-27.341-5.374-40.584 8.037-46.049 16.508-9.347 14.491-9.234 34.688.267 48.023 9.394 13.183 25.932 17.659 46.559 12.604 17.999-4.409 42.459-23.494 50.524-32.488a3 3 0 0 1 3.648-.643c10.882 5.819 24.891 10.723 36.147 14.664l.429.15c3.521 1.233 6.851 2.583 10.07 3.888 11.089 4.495 20.661 8.378 34.692 6.752l.345 2.98-.345-2.98c.32-.033.641-.051.961-.051z" fill="#232323"/><path d="M963.86 161.499c4.399-2.197 11.894-23.617 36.021-25.021 22.198-.002 33.773 35.124 3.881 66.093a80.159 80.159 0 0 1-21.159 14.996" fill="#fff"/><path d="M982.605 220.567a3 3 0 0 1-1.317-5.697 76.998 76.998 0 0 0 20.367-14.435c11.38-11.791 22.132-31.732 14.814-48.962-3.178-7.482-9.343-11.961-16.502-11.997-16.418.994-24.553 12.205-29.417 18.908-2.142 2.952-3.557 4.901-5.35 5.797a3 3 0 0 1-2.704-5.356c.598-.383 2.039-2.368 3.197-3.965 5.138-7.079 14.699-20.255 34.014-21.379.058-.003.115-.005.174-.005h.002c9.683 0 17.947 5.851 22.109 15.651 3.171 7.467 3.636 16.659 1.311 25.882-2.598 10.303-8.608 20.553-17.383 29.643a83.052 83.052 0 0 1-22.002 15.608 2.954 2.954 0 0 1-1.313.307z" fill="#232323"/><path d="M1144.948 241.153s-101.039-33.421-160.037-82.415c.694-.209 1.377-.421 2.034-.626a500.204 500.204 0 0 0 9.447-3.013c.389-.131.774-.253 1.158-.377l.828-.278c.487-.163.957-.323 1.418-.479 1.046-.352 2.042-.691 2.994-1.02.37-.124.726-.251 1.08-.375a317.724 317.724 0 0 0 8.979-3.289c.357-.138.701-.274 1.045-.399s.656-.267.982-.389c.327-.122.632-.244.929-.365.297-.12.598-.235.89-.348.432-.173.842-.347 1.244-.503.006-.006.012.002.012-.012.212-.083.426-.167.632-.244.825-.326 1.586-.629 2.321-.915C1029.588 91.585 981.538 26.65 910.54 39.96c-.786.147-1.573.304-2.359.465-.051.014-.104.019-.159.031a109.802 109.802 0 0 0-34.729 13.315c-23.997 14.569-38.959 39.125-43.169 66.664a166.808 166.808 0 0 0-1.229 34.591c.203 3.513.581 6.988 1.062 10.456.004.037.013.081.017.117.644 4.678 1.467 9.326 2.247 13.984.558 3.328 1.097 6.658 1.535 10.015.575 4.377 1.348 9.672.617 14.097-.726 4.372-3.36 8.028-6.105 11.382-5.986 7.063 5.458 13.821 12.739 14.528 6.243 15.915 23.785 67.257 52.485 70.236 11.696 1.212 38.641-16.536 50.858-26.564 44.437-9.727 92.144 45.888 112.351 68.027" fill="none"/><g clip-path="url(#f)" fill="#232323"><path d="M914.385 293.298c6.313.018 4.612 18.654 19.635 27.673 30.535-26.483 29.73-51.984 23.858-54.943-5.432-2.735-12.328 4.884-16.778 8.81-8.88 7.849-16.106 13.324-26.715 18.46z"/><path d="M934.019 323.971a2.994 2.994 0 0 1-1.543-.428c-9.565-5.742-13.027-15.111-15.317-21.31-.814-2.206-2.046-5.538-2.83-5.951-1.397-.004-2.582-.963-2.893-2.325s.385-2.75 1.642-3.359c10.474-5.071 17.477-10.443 26.034-18.009.597-.526 1.235-1.118 1.909-1.741 4.919-4.557 11.658-10.796 18.207-7.5 2.493 1.257 4.157 4.293 4.688 8.55.452 3.634.439 11.355-4.725 22.233-4.808 10.129-12.615 19.922-23.205 29.107a3.006 3.006 0 0 1-1.967.733zm-14.033-30.163c1.11 1.769 1.944 4.027 2.801 6.345 2.054 5.559 4.568 12.365 10.97 17.046 19.409-17.499 25.228-34.658 24.244-44.219-.313-3.041-1.243-4.146-1.475-4.275-2.828-1.422-8.003 3.372-11.429 6.545-.712.659-1.387 1.283-2.014 1.836-7.74 6.844-14.287 11.982-23.097 16.722z"/></g><path d="M932.704 159.911c-53.361-16.262-86.51-56.105-101.54-72.574 0 0-.532-13.809 20.312-29.299 12.771 16.776 46.69 72.051 116.783 97.294-5.91 14.72-19.866 9.36-35.555 4.579z" fill="#fff"/><path d="M954.655 167.923c-6.169 0-13.165-2.162-20.053-4.29-.917-.284-1.842-.569-2.773-.853-50.624-15.429-83.75-52.2-99.67-69.871a742.123 742.123 0 0 0-3.211-3.55 2.996 2.996 0 0 1-.782-1.907c-.023-.628-.341-15.576 21.521-31.823a3 3 0 0 1 4.176.59c1.334 1.751 2.875 3.889 4.659 6.365 15.814 21.937 48.723 67.584 110.754 89.924a3.001 3.001 0 0 1 1.768 3.941c-3.497 8.707-9.414 11.474-16.389 11.474zm-21.076-10.882c.938.286 1.87.574 2.795.86 14.174 4.378 22.957 6.613 27.708-.915-61.732-23.35-94.529-68.841-110.428-90.894-.998-1.384-1.918-2.662-2.763-3.816-13.876 11.136-16.244 20.925-16.646 23.989.749.827 1.54 1.704 2.372 2.627 16.751 18.595 47.93 53.206 96.962 68.149z" fill="#232323"/><ellipse cx="832.762" cy="70.013" fill="#fff" rx="13.182" ry="15.566" transform="matrix(.964 -.2658 .2658 .964 11.3435 223.8505)"/><path d="M833.914 88.424c-7.37 0-14.43-5.68-16.753-14.109-1.294-4.692-.951-9.556.966-13.695 1.996-4.31 5.44-7.33 9.699-8.504 8.602-2.371 17.815 3.729 20.535 13.598 1.294 4.692.951 9.556-.966 13.695-1.996 4.31-5.44 7.33-9.699 8.504a14.236 14.236 0 0 1-3.782.511zm-2.27-30.825c-.743 0-1.486.097-2.222.3-2.53.698-4.608 2.559-5.85 5.241-1.321 2.853-1.544 6.255-.627 9.58 1.842 6.682 7.75 10.897 13.155 9.408 2.53-.698 4.608-2.559 5.85-5.241 1.321-2.853 1.544-6.255.627-9.58-1.59-5.772-6.214-9.708-10.933-9.708z" fill="#232323"/><path d="M848.087 76.524c-30.776-16.9 19.17-76.989 37.361-73.367 15.296 3.045-.224 93.76-37.361 73.367z" fill="#fff"/><g fill="#232323"><path d="M858.665 82.503c-3.916 0-7.953-1.115-12.022-3.349-11.155-6.125-14.223-17.943-8.637-33.277 7.843-21.532 33.475-48.555 48.028-45.662 2.457.489 5.718 2.516 7.292 9.389 3.921 17.116-4.265 55.268-21.363 68.183-4.16 3.14-8.643 4.716-13.298 4.716zm-9.133-8.608c6.868 3.771 13.022 3.478 18.815-.897 6.776-5.118 12.803-15.942 16.534-29.697 3.296-12.153 4.315-24.854 2.597-32.358-.766-3.343-1.888-4.699-2.615-4.844-9.551-1.899-33.34 20.201-41.219 41.831-3.147 8.641-4.682 20.16 5.888 25.965zm126.864 123.541a2.998 2.998 0 0 1-2.97-3.442c4.744-31.859 27.508-35.334 28.475-35.466a3 3 0 0 1 .828 5.942c-.82.122-19.315 3.193-23.369 30.408a3.003 3.003 0 0 1-2.964 2.558zm-85.092 541.223c323 108 435.358 33.195 404.358-1.805-53.496-64.552-398.622-22.014-404.358 1.805z"/><path d="M1175.116 797.815c-95.902 0-207.266-30.398-284.763-56.311a3 3 0 0 1-1.966-3.547c2.083-8.65 28.132-14.69 39.255-17.27 87.276-20.239 325.118-40.304 370.33 14.252 6.995 7.895 7.523 17.79 1.385 27.072-6.411 9.693-19.491 18.085-37.828 24.269-20.876 7.04-47.255 10.896-78.405 11.462-2.653.049-5.332.073-8.008.073zm-278.489-60.546c79.024 26.16 191.362 56.21 286.387 54.475 66.781-1.214 101.301-17.864 111.338-33.042 4.657-7.042 4.334-13.91-.936-19.859-17.221-20.778-70.598-32.503-150.361-33.09-76.727-.569-154.066 8.9-196.972 17.176-33.074 6.38-45.113 11.595-49.456 14.34zm-405.173 638.119c-2.383 26.769-98.178 47.977-229.957-149.571-.079 0 242.825 70.774 229.957 149.571z"/><path d="M460.637 1395.464c-27.478 0-57.093-17.067-69.863-25.367-42.886-27.871-87.184-75.8-131.672-142.464-.727-.948-.599-2.069-.573-2.247a3.002 3.002 0 0 1 3.866-2.432l.154.046c6.623 1.968 66.337 19.997 122.961 46.728 77.689 36.675 114.335 72.352 108.922 106.04-.794 8.209-8.38 15.111-19.83 18.032-4.525 1.153-9.215 1.664-13.965 1.664zm-191.918-164.298c42.466 62.408 84.604 107.436 125.324 133.9 42.973 27.928 69.614 25.334 79.075 22.919 8.964-2.286 14.844-7.216 15.347-12.863a3.93 3.93 0 0 1 .027-.218c6.257-38.311-53.942-75.391-105.545-99.75-46.479-21.942-95.069-37.983-114.228-43.988z"/></g><path d="M271.426 1193.647c-5.719 12.948-25.974 58.144-32.726 75.778-16.363 42.179-34.076 92.539-44.403 124.709 0 .159 2.304 10.009 10.406 23.194.318.397.556.874.794 1.271 9.452 14.774 22.877 31.614 37.81 37.81 10.723 4.448 59.415-25.895 63.387-29.708.159-.318.318-.556.477-.874 11.597-20.97 23.433-40.987 35.109-59.336 3.336-5.163 6.513-10.167 9.77-15.092 6.275-9.452 65.214-107.948 74.031-118.195z" fill="#fff"/><path d="M245.865 1459.88c-2.021 0-3.068-.435-3.707-.699-12.882-5.345-26.065-18.454-39.188-38.964-.12-.198-.194-.328-.271-.462a5.362 5.362 0 0 0-.339-.551 3.103 3.103 0 0 1-.214-.306c-8.023-13.058-10.85-23.51-10.85-24.765 0-.312.049-.62.144-.917 9.503-29.606 26.937-79.701 44.462-124.876 5.792-15.127 21.179-49.774 29.445-68.388 1.361-3.066 2.502-5.634 3.334-7.518a3.001 3.001 0 0 1 3.487-1.694l154.654 39.557a2.998 2.998 0 0 1 1.531 4.862c-5.941 6.905-36.038 56.245-55.954 88.895-8.876 14.55-15.887 26.043-17.852 29.003-2.264 3.424-4.454 6.831-6.773 10.438-.982 1.528-1.972 3.067-2.977 4.622-11.57 18.184-23.341 38.075-34.976 59.108-.097.191-.193.362-.291.532-.052.092-.105.183-.157.286a2.967 2.967 0 0 1-.604.819c-2.329 2.236-15.878 10.961-29.821 18.432-19.595 10.503-28.664 12.586-33.083 12.586zm-38.689-44.257c.313.419.546.827.737 1.162l.157.271c8.512 13.303 21.779 30.521 36.386 36.582.936.387 6.868 1.652 31.659-11.63 13.571-7.271 25.723-15.184 28.198-17.209l.01-.017c.053-.093.107-.185.16-.291.02-.039.04-.078.062-.117 11.702-21.159 23.547-41.176 35.203-59.494a1801.34 1801.34 0 0 0 2.98-4.628c2.33-3.625 4.53-7.048 6.819-10.509 1.903-2.868 8.888-14.317 17.73-28.813 18.901-30.987 44.026-72.175 53.707-85.933l-147.844-37.815-2.311 5.206c-8.244 18.563-23.59 53.117-29.33 68.11-17.326 44.663-34.556 94.125-44.088 123.745.633 2.317 3.182 10.632 9.765 21.38z" fill="#232323"/><path d="M232.981 1284.199c-16.363 42.179-28.437 77.685-38.684 109.855 0 .159 2.304 10.008 10.406 23.194.318.397.556.874.794 1.271l37.81 37.81c10.723 4.448 59.415-25.895 63.387-29.708.159-.318 2.224-.635 2.304-.953 11.518-20.97 38.048-66.167 43.052-74.349z" fill="#d9c6f4"/><g clip-path="url(#g)"><path d="m209.072 1307.632.079.079 136.782 77.049a3.928 3.928 0 0 0 5.322-1.589c1.033-1.906.397-4.21-1.509-5.242l-136.782-77.049c-1.906-1.112-4.289-.477-5.322 1.43-1.112 1.827-.477 4.289 1.43 5.322z" fill="#fff"/></g><path d="M245.865 1459.88c-2.021 0-3.068-.435-3.707-.699-12.882-5.345-26.065-18.454-39.188-38.964-.12-.198-.194-.328-.271-.462a5.362 5.362 0 0 0-.339-.551 3.103 3.103 0 0 1-.214-.306c-8.023-13.058-10.85-23.51-10.85-24.765 0-.312.049-.62.144-.917 9.503-29.606 26.937-79.701 44.462-124.876 5.792-15.127 21.179-49.774 29.445-68.388 1.361-3.066 2.502-5.634 3.334-7.518a3.001 3.001 0 0 1 3.487-1.694l154.654 39.557a2.998 2.998 0 0 1 1.531 4.862c-5.941 6.905-36.038 56.245-55.954 88.895-8.876 14.55-15.887 26.043-17.852 29.003-2.264 3.424-4.454 6.831-6.773 10.438-.982 1.528-1.972 3.067-2.977 4.622-11.57 18.184-23.341 38.075-34.976 59.108-.097.191-.193.362-.291.532-.052.092-.105.183-.157.286a2.967 2.967 0 0 1-.604.819c-2.329 2.236-15.878 10.961-29.821 18.432-19.595 10.503-28.664 12.586-33.083 12.586zm-38.689-44.257c.313.419.546.827.737 1.162l.157.271c8.512 13.303 21.779 30.521 36.386 36.582.936.387 6.868 1.652 31.659-11.63 13.571-7.271 25.723-15.184 28.198-17.209l.01-.017c.053-.093.107-.185.16-.291.02-.039.04-.078.062-.117 11.702-21.159 23.547-41.176 35.203-59.494a1801.34 1801.34 0 0 0 2.98-4.628c2.33-3.625 4.53-7.048 6.819-10.509 1.903-2.868 8.888-14.317 17.73-28.813 18.901-30.987 44.026-72.175 53.707-85.933l-147.844-37.815-2.311 5.206c-8.244 18.563-23.59 53.117-29.33 68.11-17.326 44.663-34.556 94.125-44.088 123.745.633 2.317 3.182 10.632 9.765 21.38z" fill="#232323"/><path d="M786.545 798.153c-175.387-.238-396.511 72.204-532.578 427.664 0 0 31.996 31.455 106.98 56.476 99.37 33.123 135.057 64.817 133.786 91.506 0 0 13.958-157.832 106.735-277.854 13.742-17.714 72.125-62.275 116.289-91.109 82.689-53.855 180.47-123.358 181.503-139.245 1.826-29.39-57.351-67.358-112.715-67.438z" fill="#00676c"/><path d="M3 1397.636c3.415 14.785 21.448 38.536 64.065 57.866l205.881 92.501c14.669-36.185 29.671-89.618 53.881-147.599-16.193-5.144-20.326 2.368-43.592-1.315-26.949-4.266-46.356-27.722-114.902-34.679-1.059-.108-2.088-.34-3.126-.507-.29-.046-.572-.096-.856-.139-19.713-3.072-37.557-3.932-53.566-3.292-69.088 2.794-104.07 33.71-107.507 36.893 0 0-.006-.003-.009.004-.08.073-.141.139-.183.181-.058.06-.086.086-.086.086z" fill="#fff"/><path d="M272.947 1551.004c-.42 0-.839-.088-1.229-.264l-205.882-92.501c-42.76-19.395-62.003-43.673-65.758-59.928a2.999 2.999 0 0 1 .841-2.834l.012.013.052-.062-.008-.008a5.23 5.23 0 0 1 .384-.363c4.405-4.041 40.117-34.782 109.307-37.58 17.318-.693 35.537.425 54.149 3.325l.861.14c.382.062.753.129 1.125.197.646.117 1.255.229 1.835.288 46.338 4.703 67.829 15.339 85.098 23.885 8.327 4.121 15.52 7.681 23.994 9.747 8.983 2.191 16.456 1.359 23.686.556 8.229-.917 16.74-1.863 26.517 2.001a3.003 3.003 0 0 1 1.663 3.953c-10.764 25.598-21.464 56.566-31.811 86.515-7.993 23.132-15.542 44.98-22.055 61.048a3 3 0 0 1-2.781 1.872zM6.359 1398.636c6.361 22.066 37.072 42.853 61.945 54.134l203.021 91.216c6.188-15.615 13.292-36.174 20.785-57.862 9.522-27.559 20.266-58.653 30.721-83.93-7.166-2.129-13.524-1.422-20.755-.617-7.387.821-15.758 1.751-25.771-.688-9.119-2.225-16.587-5.92-25.233-10.2-16.835-8.331-37.785-18.699-83.042-23.293-.819-.083-1.576-.222-2.309-.355-.33-.061-.66-.121-.99-.174l-.829-.135c-18.239-2.842-36.069-3.938-52.996-3.26-63.49 2.567-97.526 29.069-104.547 35.164zm-3.855-1.65.593.552z" fill="#232323"/><path d="M299.678 1469.418c-.443 0-.893-.099-1.317-.307-.568-.278-14.044-7.023-24.618-25.137a1030.013 1030.013 0 0 1-3.532-6.108c-9.167-15.936-13.351-23.208-28.975-32.248a3 3 0 1 1 3.004-5.194c17.019 9.846 21.748 18.068 31.172 34.449 1.096 1.905 2.257 3.925 3.513 6.075 9.669 16.563 21.952 22.713 22.075 22.773a3.001 3.001 0 0 1-1.322 5.697zm-13.216 36.008a3.002 3.002 0 0 1-2.749-1.794c-.142-.318-9.837-21.657-31.956-28.814-12.069-3.908-20.019-1.871-28.434.282-6.53 1.672-13.282 3.397-21.974 2.406-11.101-1.269-17.563-5.641-23.814-9.869-7.393-5.001-14.375-9.725-29.517-10.138-64.362-1.759-111.452-24.965-136.18-67.11a3.001 3.001 0 0 1 5.175-3.037c14.267 24.316 36.189 42.021 65.159 52.618 19.067 6.976 41.275 10.855 66.009 11.531 16.89.461 25.297 6.148 32.715 11.166 5.911 3.999 11.495 7.776 21.134 8.878 7.592.867 13.525-.651 19.805-2.258 8.873-2.271 18.048-4.619 31.769-.179 24.796 8.024 35.173 31.132 35.603 32.111a2.999 2.999 0 0 1-1.542 3.952 2.974 2.974 0 0 1-1.203.255z" fill="#232323"/><ellipse cx="241.705" cy="1504.744" fill="#00676c" rx="14.535" ry="24.816" transform="matrix(.4131 -.9107 .9107 .4131 -1228.4984 1103.2734)"/><path d="m186.35 1426.96-.114-.001a7.5 7.5 0 0 1-7.387-7.611c.006-1.137-.141-28.918-26.712-52.995a7.5 7.5 0 1 1 10.073-11.115c31.799 28.813 31.659 62.898 31.638 64.335a7.502 7.502 0 0 1-7.498 7.387zm-29.584-1.738a7.5 7.5 0 0 1-7.487-7.17c-.015-.289-1.911-31.648-29.098-52.506a7.5 7.5 0 0 1 9.131-11.901c32.889 25.23 34.884 62.185 34.953 63.746a7.5 7.5 0 0 1-7.499 7.831zm-32.573-5.431a7.5 7.5 0 0 1-7.476-6.997c-.08-1.066-2.311-27.042-26.858-45.408a7.5 7.5 0 0 1 8.986-12.01c30.236 22.621 32.746 55.043 32.839 56.412a7.5 7.5 0 0 1-7.491 8.003z" fill="#00676c"/><path d="M994.499 1159.491c59.971 20.017-13.583 119.784-182.774 155.052-.08 0 56.635-185.872 182.774-155.052z" fill="#232323"/><path d="M811.724 1317.543a3 3 0 0 1-2.709-1.712c-.554-1.166-.669-1.409 3.192-12.03 2.035-5.599 5.451-14.474 10.163-24.955 8.304-18.466 22.281-45.489 41.721-69.363 17.055-20.945 35.635-36.284 55.227-45.588 23.856-11.33 49.39-13.794 75.893-7.317.08.02.159.042.238.068 15.425 5.148 23.468 15.741 22.646 29.825-1.219 20.867-22.094 47.293-55.843 70.689-27.354 18.963-75.567 44.822-149.914 60.319a3 3 0 0 1-.614.064zm155.103-158.48c-18.083 0-35.511 4.657-52.066 13.943-19.926 11.177-38.693 29.05-55.78 53.123-24.322 34.267-38.312 71.405-42.777 84.391 124.707-27.265 193.858-89.397 195.901-124.399.657-11.253-5.719-19.462-18.438-23.745-9.084-2.21-18.041-3.313-26.84-3.313z" fill="#232323"/><path clip-path="url(#h)" d="m827.135 1394.928.079-.079 115.018-106.836c1.589-1.43 1.747-3.972.238-5.56-1.43-1.589-3.972-1.747-5.56-.238l-.079.079-115.018 106.836a3.985 3.985 0 0 0-.238 5.56c1.509 1.509 3.971 1.668 5.56.238z" fill="#fff"/><path d="M740.712 1300.245c10.565 9.373 43.926 42.576 58.701 54.411 35.189 28.437 77.685 60.686 105.248 80.227.159.079 10.247.874 25.26-2.86.477-.159.953-.238 1.509-.318 16.999-4.528 37.095-12.153 47.501-24.465 7.546-8.817-6.513-64.499-8.976-69.424-.238-.238-.397-.477-.635-.715-16.442-17.396-31.932-34.871-45.832-51.552-3.892-4.766-7.705-9.373-11.438-13.901-7.069-8.817-54.967-60.289-62.116-71.727z" fill="#fff"/><path d="M908.164 1438.002c-2.686 0-4.391-.207-4.853-.439a3.096 3.096 0 0 1-.387-.232c-29.145-20.661-71.501-52.947-105.398-80.341-9.537-7.64-26.704-24.059-40.497-37.251-7.802-7.461-14.539-13.905-18.309-17.249a3.001 3.001 0 0 1-.038-4.453l109.22-100.323a3 3 0 0 1 4.574.62c4.557 7.292 27.006 32.269 43.397 50.507 8.959 9.969 16.035 17.842 18.515 20.934l2.421 2.934c2.951 3.577 5.952 7.213 9.001 10.946 14.25 17.1 29.629 34.397 45.689 51.388.128.127.287.312.443.499.042.051.081.104.132.155.229.228.418.491.562.779 1.898 3.797 17.861 61.863 8.572 72.717-8.941 10.578-25.434 19.134-49.008 25.413a2.746 2.746 0 0 1-.35.071c-.446.063-.749.115-.981.193a2.707 2.707 0 0 1-.227.065c-9.637 2.397-17.645 3.067-22.478 3.067zm-2.44-6.043c2.298.107 10.985.247 23.372-2.822a10.923 10.923 0 0 1 1.729-.375c21.963-5.87 37.803-13.98 45.813-23.458.671-.784 3.7-6.026-1.395-33.691-2.816-15.296-6.683-29.31-7.835-32.14a42.57 42.57 0 0 0-.08-.095c-.042-.051-.081-.104-.132-.155-16.205-17.142-31.667-34.534-46.017-51.752-3.061-3.749-6.055-7.376-9-10.945l-2.448-2.967c-2.399-2.992-9.778-11.202-18.322-20.708-15.635-17.396-34.691-38.6-41.977-48.397l-104.271 95.778c3.968 3.652 9.637 9.074 16.013 15.172 13.709 13.111 30.771 29.43 40.112 36.912 33.561 27.118 75.409 59.029 104.438 79.643z" fill="#232323"/><path d="M811.645 1364.585c35.189 28.437 65.293 50.757 92.856 70.298.159.079 10.247.874 25.259-2.86.477-.159.953-.238 1.509-.318l47.5-24.465c7.546-8.817-6.513-64.499-8.976-69.424-.238-.238 0-2.304-.238-2.542-16.443-17.396-51.472-56.397-57.747-63.625z" fill="#d9c6f4"/><g clip-path="url(#i)"><path d="m826.737 1394.531.079-.079 115.018-106.836a3.985 3.985 0 0 0 .238-5.56 3.985 3.985 0 0 0-5.56-.238l-115.018 106.836c-1.589 1.509-1.668 3.972-.159 5.56 1.431 1.509 3.814 1.667 5.402.317z" fill="#fff"/></g><path d="M908.164 1438.002c-2.686 0-4.391-.207-4.853-.439a3.096 3.096 0 0 1-.387-.232c-29.145-20.661-71.501-52.947-105.398-80.341-9.537-7.64-26.704-24.059-40.497-37.251-7.802-7.461-14.539-13.905-18.309-17.249a3.001 3.001 0 0 1-.038-4.453l109.22-100.323a3 3 0 0 1 4.574.62c4.557 7.292 27.006 32.269 43.397 50.507 8.959 9.969 16.035 17.842 18.515 20.934l2.421 2.934c2.951 3.577 5.952 7.213 9.001 10.946 14.25 17.1 29.629 34.397 45.689 51.388.128.127.287.312.443.499.042.051.081.104.132.155.229.228.418.491.562.779 1.898 3.797 17.861 61.863 8.572 72.717-8.941 10.578-25.434 19.134-49.008 25.413a2.746 2.746 0 0 1-.35.071c-.446.063-.749.115-.981.193a2.707 2.707 0 0 1-.227.065c-9.637 2.397-17.645 3.067-22.478 3.067zm-2.44-6.043c2.298.107 10.985.247 23.372-2.822a10.923 10.923 0 0 1 1.729-.375c21.963-5.87 37.803-13.98 45.813-23.458.671-.784 3.7-6.026-1.395-33.691-2.816-15.296-6.683-29.31-7.835-32.14a42.57 42.57 0 0 0-.08-.095c-.042-.051-.081-.104-.132-.155-16.205-17.142-31.667-34.534-46.017-51.752-3.061-3.749-6.055-7.376-9-10.945l-2.448-2.967c-2.399-2.992-9.778-11.202-18.322-20.708-15.635-17.396-34.691-38.6-41.977-48.397l-104.271 95.778c3.968 3.652 9.637 9.074 16.013 15.172 13.709 13.111 30.771 29.43 40.112 36.912 33.561 27.118 75.409 59.029 104.438 79.643z" fill="#232323"/><path d="M1172.348 728.809s109.299 104.056 41.622 234.325c-69.265 133.288-255.693 118.195-369.757 99.926 0 0 57.441 48.067 152.283 93.9 0 0-55.694-6.842-106.054 43.28-37.333 37.095-54.966 92.767-112.872 138.997-63.149-55.205-330.202-308.267-199.774-474.122 64.896-82.61 241.315-72.601 344.339-63.943 67.438-39.16 101.832-38.207 101.832-38.207z" fill="#00676c"/><path clip-path="url(#j)" d="M589.884 1128.627a2.999 2.999 0 0 1-2.624-1.542c-.167-.299-16.81-30.408-29.5-71.445-21.301-68.878-15.371-115.242-6.646-142.008 14.854-45.572 47.523-72.801 72.313-87.619 26.796-16.017 49.774-21.23 50.74-21.444a2.998 2.998 0 0 1 3.577 2.278 3.002 3.002 0 0 1-2.276 3.58c-.229.051-23.149 5.27-49.135 20.84-23.845 14.287-55.261 40.496-69.515 84.225-15.308 46.959-4.84 101.104 6.637 138.257 12.5 40.467 28.883 70.124 29.047 70.418a3 3 0 0 1-2.618 4.46z" fill="#fff"/><path d="M1127.336 860.577a2.99 2.99 0 0 1-1.437-.368c-16.653-9.104-33.562-11.048-33.731-11.067a3 3 0 0 1 .651-5.965c.735.08 18.219 2.068 35.96 11.767a3 3 0 0 1-1.443 5.633z" fill="#fff"/><path clip-path="url(#k)" d="M855.276 1070.795a2.987 2.987 0 0 1-1.809-.608c-35.645-26.987-62.155-54.113-78.118-72.116-9.106-10.271-15.796-18.696-19.804-23.955a243.784 243.784 0 0 1-4.999-6.774c-2.146-3.027-2.794-3.941-1.769-5.663l2.577 1.536 2.256 1.979-2.256-1.979 2.58-1.527c.303.485 35.648 52.607 103.153 103.717a3 3 0 0 1-1.811 5.39z" fill="#fff"/><path d="M852.44 1623.897c15.124 1.231 43.226-8.748 74.574-43.493l150.595-168.12c-30.03-24.954-76.395-55.458-124.299-96.115-9.814 13.87-3.909 20.087-14.477 41.139-12.24 24.385-40.478 35.763-67.9 98.968-.424.977-.957 1.887-1.431 2.825-.132.263-.265.516-.392.773-8.907 17.853-15.14 34.594-19.386 50.044-18.295 66.68.552 109.392 2.542 113.632 0 0-.005.005.001.01.045.098.089.176.117.23.039.072.056.107.056.107z" fill="#fff"/><path d="M854.972 1626.997c-.961 0-1.885-.037-2.775-.109a3.003 3.003 0 0 1-2.451-1.67 9.937 9.937 0 0 1-.181-.354 2.64 2.64 0 0 1-.076-.172c-2.493-5.372-20.993-48.74-2.658-115.568 4.594-16.714 11.187-33.733 19.595-50.589l.399-.787c.17-.337.349-.672.526-1.007.308-.578.598-1.124.83-1.659 18.537-42.728 35.191-59.979 48.573-73.841 6.453-6.686 12.027-12.459 16.567-19.907 4.812-7.895 6.287-15.27 7.714-22.401 1.624-8.119 3.303-16.515 9.949-24.659a3.004 3.004 0 0 1 2.055-1.092c.8-.07 1.602.183 2.217.706 21.122 18.018 47.38 37.603 72.773 56.544 19.624 14.638 38.159 28.463 51.496 39.546a3 3 0 0 1 .317 4.31l-150.596 168.12c-29.764 32.991-57.312 44.589-74.274 44.589zm-.561-5.996c.311.009.622.013.935.013 22.808 0 51.392-22.613 69.44-42.619l148.503-165.783c-13.006-10.638-30.445-23.646-48.846-37.371-23.365-17.429-49.732-37.096-70.642-54.721-4.2 6.183-5.456 12.457-6.882 19.589-1.458 7.287-3.11 15.547-8.475 24.348-4.886 8.015-10.673 14.01-17.374 20.951-13.045 13.514-29.28 30.332-47.386 72.062-.327.753-.688 1.432-1.036 2.087-.158.298-.316.596-.468.896l-.386.759c-8.236 16.509-14.688 33.163-19.179 49.501-16.811 61.276-1.883 101.748 1.796 110.288z" fill="#232323"/><path d="M930.295 1400.089a3 3 0 0 1-2.02-5.218c14.546-13.231 23.815-15.244 42.285-19.254 2.146-.466 4.422-.96 6.851-1.504 18.592-4.162 28.307-14.033 28.402-14.133a3.002 3.002 0 0 1 4.239-.079 2.997 2.997 0 0 1 .09 4.233c-.438.457-10.953 11.252-31.421 15.834-2.442.547-4.73 1.043-6.889 1.512-17.966 3.9-26.166 5.681-39.521 17.828a2.975 2.975 0 0 1-2.016.781zm-82.744 213.261a3 3 0 0 1-.659-5.927c27.498-6.219 51.018-21.738 69.904-46.128 12.43-16.053 22.863-36.038 31.011-59.401 5.563-15.954 13.533-22.239 20.564-27.785 5.604-4.42 10.896-8.595 14.87-17.445 3.131-6.973 3.483-13.085 3.856-19.557.527-9.144 1.072-18.598 9.467-30.326 15.168-21.193 40.335-24.072 41.399-24.185 1.639-.182 3.125 1.021 3.298 2.669a3 3 0 0 1-2.664 3.298c-.234.025-23.591 2.759-37.154 21.71-7.383 10.315-7.855 18.507-8.355 27.179-.388 6.729-.789 13.688-4.373 21.669-4.576 10.193-10.703 15.026-16.628 19.699-7.008 5.527-13.628 10.748-18.614 25.05-21.201 60.797-57.599 98.629-105.257 109.405a2.968 2.968 0 0 1-.665.075z" fill="#232323"/><ellipse cx="1026.911" cy="1428.93" fill="#00676c" rx="24.816" ry="14.535" transform="matrix(.6699 -.7425 .7425 .6699 -721.934 1234.176)"/><path d="M864.109 1473.313a7.5 7.5 0 0 1-3.775-13.985c37.104-21.561 69.539-11.088 70.901-10.632a7.498 7.498 0 0 1 4.729 9.493 7.498 7.498 0 0 1-9.493 4.729c-1.082-.351-27.596-8.639-58.601 9.378a7.454 7.454 0 0 1-3.761 1.017zm-10.979 30.535a7.5 7.5 0 0 1-4.292-13.656c34.017-23.685 69.838-14.376 71.346-13.969a7.5 7.5 0 0 1-3.916 14.48c-.281-.075-30.739-7.779-58.859 11.799a7.46 7.46 0 0 1-4.279 1.346zm-7.52 29.504a7.486 7.486 0 0 1-6.108-3.142 7.499 7.499 0 0 1 1.743-10.462c30.728-21.95 62.384-14.507 63.715-14.18a7.5 7.5 0 0 1-3.58 14.566c-1.042-.247-26.47-6.001-51.416 11.818a7.457 7.457 0 0 1-4.354 1.4z" fill="#00676c"/><path d="M941.304 704.659s-68.124-31.239-107-47c0 0 38.77-110.88 59.409-220.161 13.861-74.935 44.922-62.804 53.867-55.704.472 17.34-5.45 202.599-5.45 202.599z" fill="#fff"/><path d="M941.304 707.659c-.426 0-.852-.09-1.25-.273-.681-.312-68.509-31.392-106.877-46.947a3 3 0 0 1-1.705-3.771c.387-1.107 38.934-111.931 59.293-219.728 6.533-35.318 17.677-56.166 33.119-61.952 9.991-3.743 19.755-.154 25.561 4.455a3.005 3.005 0 0 1 1.134 2.268c.469 17.231-5.208 195.209-5.45 202.776l-.824 120.191a3 3 0 0 1-3.001 2.981zm-103.24-51.707c33.126 13.561 85.188 37.177 100.272 44.054l.794-115.633c.06-1.882 5.646-177.004 5.473-201.04-2.927-1.984-10.196-5.878-18.613-2.724-9.168 3.435-21.697 16.188-29.326 57.435-18.675 98.878-52.57 200.235-58.6 217.908z" fill="#232323"/><path d="M634.516 666.713c85.983 14.718 111.879 20.131 112.213 20.644l31.486-48.469c-104.363-62.694-293.336-74.029-367.409-9.571-29.107 26.429 10.669 11.036 16.475 9.04-32.991 50.68 3.662 25.094 7.857 21.742-16.249 45.497 29.353-6.272 29.353-6.272.044.078.096.156.147.234a.17.17 0 0 0 .033.042c4.281 6.043 34.695 2.796 35.939 2.584-1.441.438 59.65-2.684 133.906 10.026z" fill="#fff"/><path d="M746.729 690.357c-.473 0-.93-.111-1.34-.315-2.771-.857-27.401-5.997-111.379-20.372-28.683-4.909-74.494-10.623-129.974-9.961-1.127.013-1.989.023-2.571.024-.204.003-.497 0-.822-.028-3.618.455-26.955 3.091-35.854-1.729-2.41 2.634-6.773 7.277-11.548 11.767-11.033 10.377-17.513 13.76-21.662 11.312-3.108-1.832-3.744-6.024-1.878-13.547-5.759 3.501-13.412 6.958-17.185 3.534-2.951-2.677-3.898-7.951 7.675-27.056-13.964 4.575-20.004 4.753-22.256 1.002-2.246-3.743.797-8.76 10.854-17.893 35.181-30.616 98.774-46.52 174.476-43.673 72.437 2.722 145.893 22.495 196.495 52.894a3.002 3.002 0 0 1 .971 4.206l-31.486 48.469a3 3 0 0 1-2.512 1.366h-.004zm-2.463-1.288.002.003-.002-.003zm-.008-.01zm-.007-.011a.03.03 0 0 0 .005.007l-.005-.007zm-.006-.01a.03.03 0 0 0 .005.007c-.003-.002-.004-.005-.005-.007zm-.007-.01zm-.007-.01.006.009-.006-.009zm-.007-.01.006.009-.006-.009zm-.007-.011.007.01-.007-.01zm-231.365-35.341c51.92 0 94.789 5.413 122.17 10.1 47.09 8.061 73.996 12.964 88.275 15.658 12.629 2.383 18.898 3.628 22.123 4.451l28.576-43.988c-49.672-29.003-120.755-47.82-190.957-50.458-74.198-2.79-136.269 12.579-170.264 42.162-6.405 5.816-8.499 8.77-9.183 10.08 1.986.119 7.25-.609 21.08-5.561.68-.244 1.234-.442 1.633-.579a3 3 0 0 1 3.49 4.474c-12.95 19.893-13.336 25.36-13.163 26.546 2.682.329 11.912-5.013 16.632-8.784a3 3 0 0 1 4.698 3.353c-3.73 10.445-3.439 13.832-3.214 14.712 3.629-.229 16.19-11.151 27.49-23.976a3 3 0 0 1 4.847.48l.032.044c.018.025 1.933 2.505 16.447 2.374 8.224-.07 15.94-.921 16.557-1.016.323-.05.644-.046.951.005.492.005 1.659-.008 2.891-.022 2.992-.037 5.956-.055 8.889-.055z" fill="#232323"/><path clip-path="url(#l)" d="M469.836 660.585c-.421 0-.848-.089-1.255-.277-5.479-2.528-8.152-5.884-7.949-9.974.443-8.908 15.729-17.153 27.189-22.58 1.7-.805 3.396-1.579 5.056-2.316-36.546 5.516-72.969 18.634-73.404 18.792a3 3 0 1 1-2.047-5.64c.529-.192 53.49-19.265 96.523-21.365 1.487-.086 2.809.962 3.092 2.427a2.999 2.999 0 0 1-1.965 3.404c-.123.043-12.481 4.337-24.728 10.139-21.721 10.292-23.65 15.947-23.724 17.436-.092 1.841 2.761 3.439 4.47 4.228a3 3 0 0 1-1.258 5.726z" fill="#232323"/><path clip-path="url(#l)" d="M430.776 666.194a2.999 2.999 0 0 1-1.887-5.333c.354-.286 36.002-28.798 84.334-43.507a3 3 0 1 1 1.746 5.741c-47.173 14.357-81.965 42.156-82.311 42.436a2.998 2.998 0 0 1-1.882.663z" fill="#232323"/><path d="M1020.204 348.899c-24.084 52.17-67.708 82.558-72.598 53.494 0 0-18.043 293.767-121.012 370.468 67.245 37.825 188.551-1.832 279.709-26.201 101-27 170.003-30.16 190.003-9.16-58-61-117.339-234.124-150.003-365.84z" fill="#fff"/><path d="M898.616 791.475c-30.228 0-54.48-5.307-73.491-16a3.001 3.001 0 0 1-.321-5.02c52.425-39.051 82.207-136.915 97.96-212.135 17.146-81.875 21.805-155.378 21.85-156.111a3 3 0 0 1 5.952-.314c1.34 7.961 5.488 8.516 6.852 8.698 12.181 1.628 40.942-21.531 60.064-62.952a3.006 3.006 0 0 1 3.257-1.695l126.1 22.76a3 3 0 0 1 2.379 2.23c18.018 72.658 41.238 146.909 65.385 209.074 28.869 74.327 57.875 128.07 83.88 155.42a3 3 0 0 1-4.346 4.137l-.001-.001-.005-.005c-19.029-19.964-88.952-16.228-187.05 9.996-9.151 2.446-18.45 5.004-28.294 7.711-42.779 11.766-91.266 25.102-135.922 31.022-15.99 2.122-30.719 3.185-44.249 3.185zm-66.52-19.092c60.048 30 162.452 1.832 245.097-20.899 9.855-2.71 19.164-5.271 28.337-7.723 50.378-13.467 92.773-21.097 126.009-22.678 21.692-1.032 38.743.585 50.975 4.814-23.38-30.322-48.547-79.457-73.505-143.713-24.027-61.858-47.137-135.62-65.147-207.917l-121.92-22.006c-17.856 37.418-47.442 66.677-65.319 64.279-1.889-.252-4.499-1.009-6.843-3.118-1.959 23.522-7.772 82.258-21.128 146.056-10.132 48.396-22.562 90.218-36.943 124.305-17.156 40.655-37.196 70.433-59.613 88.6z" fill="#232323"/><path d="M938.304 678.659c109 70 273.832 48.903 263.832-4.097-33-81.999-258.096-19.722-263.832 4.097z" fill="#232323"/><path d="M1098.007 726.198a304.2 304.2 0 0 1-19.55-.634c-52.084-3.355-102.434-19.116-141.774-44.381a3.001 3.001 0 0 1-1.296-3.227c4.086-16.967 83.052-41.754 148.234-46.532 29.688-2.174 54.838-.379 74.762 5.338 23.837 6.841 39.494 19.182 46.536 36.679.073.182.128.371.165.564 2.289 12.134-3.465 23.244-16.642 32.127-18.941 12.772-52.517 20.066-90.435 20.066zm-155.761-48.592c38.15 23.865 86.532 38.746 136.598 41.971 44.433 2.862 85.149-4.195 106.246-18.418 11.082-7.472 15.842-16.135 14.151-25.754-16.072-39.22-79.027-40.646-115.18-37.995-31.209 2.287-66.476 9.153-96.759 18.839-27.886 8.918-41.37 16.985-45.056 21.357z" fill="#232323"/><path d="M457.183 759.339c-21.947 34.44 49.858-8.046 51.4-8.96-30.76 25.307-32.164 38.956-2.965 25.816 29.198-13.14 68.023-32.724 104.092-36.193 54.637-5.254 106.982 27.815 123.983 36.775 271.082 157.606 450.752 95.614 432.89-99.817-12.083-107.238-137.752-176.406-207.279-118.302-7 21-24.966 113.288-24.146 113.35 0 0-200.414-82.257-374.831-27.62-1.428.481-57.751 13.903-101.375 52.415a438.69 438.69 0 0 0-2.078 1.853c-35.278 31.837 17.338 13.726 28.002 8.738-8.187 6.949-22.031 20.11-29.619 28.93-33.679 39.149 1.926 23.015 1.926 23.015z" fill="#fff"/><path d="M1001.686 869.044c-15.828 0-32.507-1.355-49.909-4.083-65.746-10.309-139.611-39.096-219.537-85.557-1.759-.928-3.866-2.097-6.304-3.447-22.016-12.202-67.838-37.597-115.938-32.967-31.225 3.002-65.028 18.498-92.19 30.948a1694.99 1694.99 0 0 1-10.958 4.994c-13.826 6.222-21.581 6.999-24.407 2.45-2.504-4.033.992-10.35 6.905-17.076a284.63 284.63 0 0 1-4.721 2.331c-23.901 11.515-30.058 10.038-32.929 7.074-2.24-2.315-1.972-5.611-.743-8.931-4.581 1.203-9.602 1.519-12.003-1.685-3.484-4.652.712-13.243 14.03-28.725 4.604-5.353 11.555-12.362 18.211-18.658a146.572 146.572 0 0 1-6.793 1.992c-12.474 3.311-19.149 3.112-21.641-.644-2.823-4.255.797-10.425 12.104-20.63.705-.632 1.403-1.257 2.102-1.874 38.654-34.125 87.703-49.082 101.815-52.854.323-.086.54-.144.642-.174 39.982-12.524 84.627-18.874 132.699-18.874h.356c38.512.025 79.3 4.099 121.233 12.109 60.45 11.547 106.073 28.111 118.931 33.038.396-2.44 1.061-6.056 2.083-11.525 1.808-9.66 4.254-22.078 6.712-34.069 3.109-15.171 10.797-51.825 15.021-64.497.176-.528.495-.997.922-1.353 28.873-24.127 68.999-28.519 110.089-12.047 25.436 10.196 49.324 28.056 67.264 50.29 19.458 24.116 31.503 52.48 34.832 82.025 3.511 38.406-.446 72.223-11.754 100.573-11.159 27.979-29.225 50.078-53.692 65.68-27.195 17.342-62.043 26.166-102.432 26.166zM621.435 736.45c45.601 0 88.297 23.665 107.41 34.259 2.432 1.348 4.532 2.512 6.246 3.416.037.019.073.04.109.061 79.303 46.105 152.481 74.653 217.505 84.848 60.344 9.462 111.586 2.126 148.188-21.213 23.386-14.913 40.661-36.056 51.346-62.844 10.953-27.463 14.774-60.349 11.357-97.741-3.195-28.347-14.793-55.64-33.533-78.867-17.305-21.448-40.328-38.668-64.826-48.488-38.662-15.497-76.275-11.648-103.35 10.537-6.8 21.292-23.156 104.913-23.743 111.303.031.322.011.652-.067.981a2.99 2.99 0 0 1-4.058 2.084c-.5-.205-50.75-20.64-121.567-34.153-65.229-12.448-161.767-21.404-251.229 6.62-.041.015-.363.105-.894.248-13.792 3.686-61.722 18.297-99.393 51.554-.688.607-1.374 1.223-2.062 1.839-9.412 8.493-10.786 11.925-10.981 12.844.872.323 4.5 1.054 16.021-2.117 8.124-2.236 16.404-5.405 19.688-6.941a3.001 3.001 0 0 1 3.213 5.005c-8.35 7.087-21.92 20.036-29.286 28.6-13.806 16.048-13.86 20.513-13.753 21.197 1.424.721 7.228-.639 12.169-2.873a3.002 3.002 0 0 1 3.767 4.346c-4.331 6.795-3.67 8.621-3.658 8.649.002 0 .302.208 1.459.208 2.558 0 9.175-1.147 25.028-8.83 12.087-5.858 23.276-12.448 24.512-13.181a3 3 0 0 1 3.435 4.897c-18.947 15.589-22.924 23.511-22.916 25.435.797.232 4.707.778 16.812-4.67 3.509-1.579 7.156-3.25 10.921-4.977 27.571-12.639 61.885-28.368 94.116-31.467 4.019-.388 8.028-.569 12.014-.569zm-165.38 33.152h.011zM936.16 669.178l.137.056c.213.087.411.197.593.325a2.922 2.922 0 0 0-.73-.381z" fill="#232323"/><path clip-path="url(#m)" d="M465.847 728.084a2.999 2.999 0 0 1-2.214-5.023c22.229-24.346 52.75-38.205 54.039-38.783a2.998 2.998 0 0 1 3.964 1.509 2.999 2.999 0 0 1-1.508 3.965c-.305.137-30.697 13.952-52.063 37.354a2.995 2.995 0 0 1-2.218.978zm-19.245 49.692a3.001 3.001 0 0 1-2.65-4.401c8.521-16.144 25.649-32.671 50.912-49.123 18.678-12.164 35.144-19.777 35.309-19.852a3 3 0 0 1 2.507 5.451c-.64.294-64.169 29.845-83.421 66.325a3.002 3.002 0 0 1-2.657 1.6zm29.361 7.532a2.999 2.999 0 0 1-2.523-4.618c17.028-26.606 62.936-51.987 64.883-53.055a3 3 0 0 1 2.885 5.261c-.464.254-46.515 25.715-62.716 51.028a2.995 2.995 0 0 1-2.529 1.384z" fill="#232323"/><path d="M1026.344 338.023c-37.04 55.636-69.206 182.028-96.206 332.028 0 0 61.484 26.578 139.166 1.608 84-27 124.832-18.097 132.832 2.903-36-89-35.832-151.903-47.832-261.903-14.127-129.5-92.366-128.099-127.96-74.636z" fill="#fff"/><path d="M1001.076 685.323c-11.812 0-22.259-.92-30.902-2.134-25.193-3.539-40.583-10.107-41.226-10.385a3 3 0 0 1-1.762-3.285c30.77-170.945 63.291-283.036 96.661-333.159l2.497 1.663-2.497-1.663c17.802-26.74 45.448-40.081 70.421-33.986 15.479 3.777 29.232 14.762 39.775 31.765 11.848 19.107 19.667 45.416 23.243 78.194 2.221 20.357 3.998 38.826 5.718 56.687 7.364 76.502 12.691 131.855 41.582 203.597.125.294.243.587.354.877a3 3 0 0 1-5.585 2.193l-.304-.752c-7.673-17.906-45.374-27.244-128.829-.42-25.513 8.201-49.264 10.808-69.146 10.808zm-67.547-17.169c11.568 4.292 67.314 22.358 134.857.649 39.558-12.715 71.88-18.329 96.037-16.686 13.387.91 22.561 3.939 28.832 7.815-24.205-65.481-29.327-118.698-36.224-190.338-1.717-17.842-3.493-36.291-5.71-56.611-6.446-59.093-27.76-97.285-58.477-104.78-22.492-5.492-47.616 6.869-64.004 31.482-32.754 49.201-64.818 159.705-95.311 328.469z" fill="#232323"/></svg></g><g transform="translate(1431.6 1297.2) rotate(0.0 360.5999999999999 214.79999999999995) scale(1.2001118240634732 1.2025327085537696)"><svg width="600.944" height="357.246" viewBox="0 0 600.944 357.246"><clipPath id="n"><path d="M151.892 330.985 1.518 22.238C-2.11 14.79.987 5.811 8.435 2.184l1.368-.666c7.448-3.627 16.426-.53 20.054 6.917l150.374 308.748c3.627 7.448.53 16.426-6.917 20.054l-1.368.666c-7.448 3.627-16.426.53-20.054-6.918z"/></clipPath><path d="M151.892 330.985 1.518 22.238C-2.11 14.79.987 5.811 8.435 2.184l1.368-.666c7.448-3.627 16.426-.53 20.054 6.917l150.374 308.748c3.627 7.448.53 16.426-6.917 20.054l-1.368.666c-7.448 3.627-16.426.53-20.054-6.918z" fill="#d9c6f4"/><path d="M585.944 339.567H165.029c-8.284 0-15-6.716-15-15v-1.521c0-8.284 6.716-15 15-15h420.915c8.284 0 15 6.716 15 15v1.521c0 8.284-6.716 15-15 15z" fill="#d9c6f4"/><path clip-path="url(#n)" d="m114.869 357.247-1.129-3.838c14.489-4.262 32.188-18.612 32.188-29.286 0-11.357 9.239-20.597 20.597-20.597l37.566 1.052-.111 3.998-37.511-1.051c-9.096.001-16.541 7.446-16.541 16.598 0 11.725-17.038 27.823-35.059 33.124z" fill="#fff"/></svg></g><g transform="translate(1686.0 1076.3999999999999) rotate(0.0 460.79999999999995 341.4000000000001) scale(1.2003125814014066 1.2016895459345303)"><svg width="767.8" height="568.2" viewBox="0 0 767.8 568.2"><g xmlns:xlink="http://www.w3.org/1999/xlink"><g><path d="M500.5 377.8c109 70 273.8 48.9 263.8-4.1-32.9-82-258-19.8-263.8 4.1z" style="fill:#232323"/><path d="M660.2 425.3c-6.4 0-12.9-.2-19.5-.6-52.1-3.4-102.4-19.1-141.8-44.4-1.1-.7-1.6-2-1.3-3.2 4.1-17 83.1-41.8 148.2-46.5 29.7-2.2 54.8-.4 74.8 5.3 23.8 6.8 39.5 19.2 46.5 36.7.1.2.1.4.2.6 2.3 12.1-3.5 23.2-16.6 32.1-19 12.7-52.5 20-90.5 20zm-155.7-48.6c86.7 54.3 203.2 50.3 242.8 23.6 11.1-7.5 15.8-16.1 14.2-25.8-16.1-39.2-79-40.6-115.2-38-31.2 2.3-66.5 9.2-96.8 18.8-27.9 9-41.3 17-45 21.4z" style="fill:#232323"/></g><g><path d="M19.4 458.4c-21.9 34.4 49.9-8 51.4-9-30.8 25.3-32.2 39-3 25.8s68-32.7 104.1-36.2c54.6-5.3 107 27.8 124 36.8C567 633.4 746.7 571.4 728.8 376 716.7 268.8 591 199.6 521.5 257.7c-7 21-25 113.3-24.1 113.4 0 0-200.4-82.3-374.8-27.6-1.4.5-57.8 13.9-101.4 52.4-.7.6-1.4 1.2-2.1 1.9-35.3 31.8 17.3 13.7 28 8.7-8.2 6.9-22 20.1-29.6 28.9-33.7 39.2 1.9 23 1.9 23z" style="fill:#fff"/><path d="M563.9 568.1c-15.8 0-32.5-1.4-49.9-4.1-65.7-10.3-139.6-39.1-219.5-85.6-1.8-.9-3.9-2.1-6.3-3.4-22-12.2-67.8-37.6-115.9-33-31.2 3-65 18.5-92.2 31-3.8 1.7-7.4 3.4-11 5-13.8 6.2-21.6 7-24.4 2.5-2.5-4 1-10.3 6.9-17.1-1.5.8-3.1 1.6-4.7 2.3-23.9 11.5-30.1 10-32.9 7.1-2.2-2.3-2-5.6-.7-8.9-4.6 1.2-9.6 1.5-12-1.7-3.5-4.7.7-13.2 14-28.7 4.6-5.4 11.6-12.4 18.2-18.7-2.2.7-4.5 1.4-6.8 2-12.5 3.3-19.1 3.1-21.6-.6-2.8-4.3.8-10.4 12.1-20.6.7-.6 1.4-1.3 2.1-1.9 38.6-34.1 87.7-49.1 101.8-52.9.3-.1.5-.1.6-.2 40-12.5 84.6-18.9 132.7-18.9h.4c38.5 0 79.3 4.1 121.2 12.1 60.5 11.5 106.1 28.1 118.9 33 .4-2.4 1.1-6.1 2.1-11.5 1.8-9.7 4.3-22.1 6.7-34.1 3.1-15.2 10.8-51.8 15-64.5.2-.5.5-1 .9-1.4 28.9-24.1 69-28.5 110.1-12 25.4 10.2 49.3 28.1 67.3 50.3 19.5 24.1 31.5 52.5 34.8 82 3.5 38.4-.4 72.2-11.8 100.6-11.2 28-29.2 50.1-53.7 65.7-27.1 17.4-62 26.2-102.4 26.2zM183.7 435.6c45.6 0 88.3 23.7 107.4 34.3 2.4 1.3 4.5 2.5 6.2 3.4 0 0 .1 0 .1.1 79.3 46.1 152.5 74.7 217.5 84.8 60.3 9.5 111.6 2.1 148.2-21.2 47.8-30.5 69.5-86 62.7-160.6-7.2-63.6-54.6-109.8-98.4-127.4-38.7-15.5-76.3-11.6-103.3 10.5-6.8 21.3-23.2 104.9-23.7 111.3 0 .3 0 .7-.1 1-.3 1.4-1.7 2.4-3.1 2.3-.3 0-.6-.1-.9-.2-.5-.2-50.8-20.6-121.6-34.2-65.2-12.4-161.8-21.4-251.2 6.6 0 0-.4.1-.9.2-13.8 3.7-61.7 18.3-99.4 51.6l-2.1 1.8c-9.4 8.5-10.8 11.9-11 12.8.9.3 4.5 1.1 16-2.1 8.1-2.2 16.4-5.4 19.7-6.9 1.4-.6 3-.2 3.8 1.1s.6 2.9-.6 3.9c-8.3 7.1-21.9 20-29.3 28.6C6 453.4 5.9 457.9 6 458.6c1.4.7 7.3-.7 12.2-2.9 1.2-.5 2.6-.2 3.5.8s1 2.5.3 3.6c-4.3 6.8-3.7 8.6-3.7 8.6s.3.2 1.5.2c2.6 0 9.2-1.1 25-8.8 12.3-6 24-12.9 24.5-13.2 1.3-.8 3.1-.4 4 .9.9 1.3.7 3-.5 4-18.9 15.6-22.9 23.5-22.9 25.4.8.2 4.7.8 16.8-4.7 3.5-1.6 7.1-3.2 10.9-5 27.6-12.6 61.9-28.4 94.1-31.5 4-.3 8-.4 12-.4zM18.3 468.7zm480.1-100.4c.1 0 .1.1.1.1l.6.3c-.2-.2-.4-.3-.7-.4z" style="fill:#232323"/></g><g><defs><path id="o" d="M19.4 458.4c-21.9 34.4 49.9-8 51.4-9-30.8 25.3-32.2 39-3 25.8s68-32.7 104.1-36.2c54.6-5.3 107 27.8 124 36.8C567 633.5 754 563.1 734.1 374c-11.4-101.1-103.8-177.8-172.5-136.2-32.7 19.8-51.8 81.8-67 138-47.3-14.7-166-70.1-325.7-43.8-70.6 11.6-109.3 33.6-147.6 64-.7.6-1.4 1.2-2.1 1.9-35.3 31.8 17.3 13.7 28 8.7-8.2 6.9-22 20.1-29.6 28.9-33.8 39.1 1.8 22.9 1.8 22.9z" fill="#000"/></defs><clipPath id="p"><use xlink:href="#o" style="overflow:visible"/></clipPath><g style="clip-path:url(#p)"><path d="M28.1 427.2c-.7 0-1.4-.3-2-.8-1.2-1.1-1.3-3-.2-4.2 22.2-24.3 52.7-38.2 54-38.8 1.5-.7 3.3 0 4 1.5s0 3.3-1.5 4c-.3.1-30.7 14-52.1 37.4-.6.6-1.4.9-2.2.9z" style="fill:#232323"/></g><g style="clip-path:url(#p)"><path d="M8.8 476.9c-.5 0-1-.1-1.4-.3-1.5-.8-2-2.6-1.3-4.1 20.2-38.3 83.5-67.7 86.2-69 1.5-.7 3.3 0 4 1.5.7 1.5 0 3.3-1.5 4-.6.3-64.2 29.8-83.4 66.3-.5 1-1.5 1.6-2.6 1.6z" style="fill:#232323"/></g><g style="clip-path:url(#p)"><path d="M38.2 484.4c-.6 0-1.1-.2-1.6-.5-1.4-.9-1.8-2.7-.9-4.1 17-26.6 62.9-52 64.9-53.1 1.5-.8 3.3-.3 4.1 1.2.8 1.5.3 3.3-1.2 4.1-.5.3-46.5 25.7-62.7 51-.7.9-1.6 1.4-2.6 1.4z" style="fill:#232323"/></g></g><g><path d="M588.6 37.1c-37 55.6-69.2 182-96.2 332 0 0 61.5 26.6 139.2 1.6 84-27 124.8-18.1 132.8 2.9-36-89-35.8-151.9-47.8-261.9-14.2-129.4-92.4-128-128-74.6z" style="fill:#fff"/><path d="M563.3 384.4c-11.8 0-22.3-.9-30.9-2.1-25.2-3.5-40.6-10.1-41.2-10.4-1.3-.6-2-1.9-1.8-3.3 30.8-170.9 63.3-283 96.7-333.2l2.5 1.7-2.5-1.7c17.8-26.7 45.4-40.1 70.4-34 15.5 3.8 29.2 14.8 39.8 31.8 11.8 19.1 19.7 45.4 23.2 78.2 2.2 20.4 4 38.8 5.7 56.7 7.4 76.5 12.7 131.9 41.6 203.6.1.3.2.6.4.9.6 1.5-.2 3.3-1.7 3.9-1.5.6-3.3-.1-3.9-1.7-.1-.2-.2-.5-.3-.8-7.7-17.9-45.4-27.2-128.8-.4-25.6 8.2-49.3 10.8-69.2 10.8zm-67.5-17.1c11.6 4.3 67.3 22.4 134.9.6 39.6-12.7 71.9-18.3 96-16.7 13.4.9 22.6 3.9 28.8 7.8-24.2-65.5-29.3-118.7-36.2-190.3-1.7-17.8-3.5-36.3-5.7-56.6-6.5-59.1-27.8-97.3-58.5-104.8-22.5-5.5-47.6 6.9-64 31.5-32.8 49.2-64.8 159.7-95.3 328.5z" style="fill:#232323"/></g></g></svg></g></svg>